<svg xmlns="http://www.w3.org/2000/svg" width="124.921" height="53.631" viewBox="0 0 124.921 53.631">
  <g id="グループ_28" data-name="グループ 28" transform="translate(-647.831 -80.139)">
    <g id="グループ_26" data-name="グループ 26" transform="translate(647.831 80.139)">
      <path id="パス_11" data-name="パス 11" d="M689.693,105.551l20.938-2.3c.416-.046.588.135.516.54l-.65,3.787a3.222,3.222,0,0,1-.462,1.19l-5.1,8.154a1.252,1.252,0,0,1-.95.619l-8.68.953q-.624.068-.515-.54l.65-3.787a.769.769,0,0,1,.732-.7l4.639-.509a1.3,1.3,0,0,0,.977-.6l1.872-2.917q.352-.528-.271-.459l-14.565,1.6q-.624.069-.515-.567l.65-3.788A.758.758,0,0,1,689.693,105.551Z" transform="translate(-660.965 -87.64)" fill="#0c3d4f"/>
      <path id="パス_12" data-name="パス 12" d="M712.026,92.9l-.65,3.788a.76.76,0,0,1-.732.677l-18.363,2.016q-.6.065-.515-.54l.678-3.79a.753.753,0,0,1,.7-.7l18.39-2.018C711.937,92.282,712.1,92.473,712.026,92.9Z" transform="translate(-662.089 -84.093)" fill="#0c3d4f"/>
      <path id="パス_13" data-name="パス 13" d="M804.809,82.082l4.557-.5c.416-.046.588.144.515.567l-1.518,8.819a.76.76,0,0,1-.732.677l-4.558.5q-.624.069-.515-.54l1.519-8.819A.769.769,0,0,1,804.809,82.082Zm13.019-1.429,4.611-.507q.622-.068.515.567l-3.5,20.129a.743.743,0,0,1-.705.674l-10.5,1.152q-.6.065-.488-.543l.65-3.787a.754.754,0,0,1,.705-.7l4.639-.509a.76.76,0,0,0,.732-.677l2.6-15.095A.768.768,0,0,1,817.828,80.652Z" transform="translate(-698.05 -80.139)" fill="#0c3d4f"/>
      <path id="パス_14" data-name="パス 14" d="M752.817,93.617a.768.768,0,0,0,.732-.7l.651-3.788q.109-.608-.515-.54l-6.456.708q-.624.069-.542-.565l.19-1.268c.054-.4-.119-.584-.516-.54l-4.447.488a.718.718,0,0,0-.705.673l-.1.674H741.1l-.095.637a.723.723,0,0,1-.687.66l-6.591.723a.76.76,0,0,0-.732.677l-.651,3.788q-.109.636.515.567l7.314-.8-.372,2.508-7.538.828a.759.759,0,0,0-.732.677l-.65,3.787q-.109.61.515.541l7.134-.783c.271-.03.427.051.491.222l-.57,3.846h.05l-.433,2.789q-.107.608.516.54l4.556-.5a.758.758,0,0,0,.732-.676l.977-6.292a.754.754,0,0,1,.705-.7l6.78-.744a.761.761,0,0,0,.733-.677l.651-3.787c.072-.405-.1-.586-.517-.54l-7.731.848.372-2.508Z" transform="translate(-674.782 -82.339)" fill="#0c3d4f"/>
      <path id="パス_15" data-name="パス 15" d="M786.854,96.6a.739.739,0,0,0-.648-.191L780.762,97v0l.107-.609a.739.739,0,0,0-.168-.644.714.714,0,0,0-.631-.186l-2.693.3a.953.953,0,0,0-.883.822l-.1.6c-.032.184-.1.224-.243.239l-2.735.3a.953.953,0,0,0-.884.821l-.374,2.148a.723.723,0,0,0,.149.651.737.737,0,0,0,.648.193l2.8-.307-1.428,8.43a.721.721,0,0,0,.149.651.672.672,0,0,0,.515.2,1.142,1.142,0,0,0,.133-.008l2.692-.3a.946.946,0,0,0,.885-.822l1.494-8.643,2.146-.229h0l-.438,2.513a.746.746,0,0,0,.153.669.73.73,0,0,0,.644.193l2.464-.27a.944.944,0,0,0,.862-.84L787,97.249A.721.721,0,0,0,786.854,96.6Z" transform="translate(-688.179 -85.142)" fill="#0c3d4f"/>
      <path id="パス_16" data-name="パス 16" d="M668.767,91.129a5.078,5.078,0,0,0-4.383,4.412l-15.161,1.664a.752.752,0,0,0-.7.7l-.678,3.791q-.081.6.515.54l13.051-1.433-1.542,9.45-.213,1.239a.759.759,0,0,1-.732.677l-5.315.584a.754.754,0,0,0-.707.7l-.651,3.787q-.109.609.49.543l11.091-1.218a.76.76,0,0,0,.733-.677l.339-1.969L667.376,99.9a4.225,4.225,0,0,0,1.391.092,5.075,5.075,0,0,0,4.434-4.92A3.9,3.9,0,0,0,668.767,91.129Zm2.142,4.774a.318.318,0,0,1-.278.308l-1.012.111v1.012a.317.317,0,0,1-.278.307l-1.15.126a.243.243,0,0,1-.278-.247V96.509l-1.012.111a.244.244,0,0,1-.278-.247v-1.15a.318.318,0,0,1,.278-.308l1.012-.111V93.791a.318.318,0,0,1,.278-.308l1.15-.126a.244.244,0,0,1,.278.247v1.012l1.012-.111a.243.243,0,0,1,.278.247Z" transform="translate(-647.831 -83.698)" fill="#0c3d4f"/>
    </g>
    <g id="グループ_27" data-name="グループ 27" transform="translate(676.143 111.764)">
      <path id="パス_17" data-name="パス 17" d="M702.157,140.979l-3,.326a.208.208,0,0,0-.184.172l-.18,1.065a3.406,3.406,0,0,0-3.08-1.083c-3.177.346-5.964,3.763-5.963,7.314a5.071,5.071,0,0,0,1.5,3.8,3.666,3.666,0,0,0,2.377.945,4.4,4.4,0,0,0,.636-.024,4.742,4.742,0,0,0,2.861-1.409l-.105.578a.223.223,0,0,0,.057.191.22.22,0,0,0,.187.07l3.022-.328a.208.208,0,0,0,.183-.172L702.4,141.24a.221.221,0,0,0-.058-.19A.228.228,0,0,0,702.157,140.979Zm-4.119,5.659a3.527,3.527,0,0,1-2.836,3.382,1.6,1.6,0,0,1-1.283-.365,2,2,0,0,1-.581-1.517,3.465,3.465,0,0,1,2.835-3.359,1.61,1.61,0,0,1,1.292.365A1.967,1.967,0,0,1,698.038,146.639Z" transform="translate(-689.75 -131.513)" fill="#0c3d4f"/>
      <path id="パス_18" data-name="パス 18" d="M724.585,132.224l-3.045.331a.209.209,0,0,0-.184.172l-.915,5.386a3.605,3.605,0,0,0-3.189-1.082c-3.282.357-6.054,3.7-6.053,7.3a5.1,5.1,0,0,0,1.52,3.819,3.641,3.641,0,0,0,2.358.946,4.293,4.293,0,0,0,.615-.024,5.064,5.064,0,0,0,3.085-1.442l-.107.588a.223.223,0,0,0,.058.191.221.221,0,0,0,.186.07l3.044-.331a.207.207,0,0,0,.183-.172l2.687-15.5a.225.225,0,0,0-.059-.19A.221.221,0,0,0,724.585,132.224Zm-4.9,10a3.56,3.56,0,0,1-2.947,3.349,1.63,1.63,0,0,1-1.312-.382,2,2,0,0,1-.6-1.517,3.486,3.486,0,0,1,2.945-3.305,2.11,2.11,0,0,1,.3-.012,1.577,1.577,0,0,1,1.022.394A1.938,1.938,0,0,1,719.688,142.221Z" transform="translate(-696.713 -128.671)" fill="#0c3d4f"/>
      <path id="パス_19" data-name="パス 19" d="M747.451,135.617a4.553,4.553,0,0,0-3.351,1.955,2.874,2.874,0,0,0-3.093-1.254,3.94,3.94,0,0,0-2.494,1.2l.072-.436a.222.222,0,0,0-.059-.189.225.225,0,0,0-.186-.069l-3.022.329a.206.206,0,0,0-.183.172l-1.955,11.185a.226.226,0,0,0,.057.19.23.23,0,0,0,.156.071h.031l3.022-.329a.207.207,0,0,0,.183-.171l1.154-6.575a2.175,2.175,0,0,1,1.884-1.867.975.975,0,0,1,.831.237,1.552,1.552,0,0,1,.213,1.324l-1.111,6.422a.225.225,0,0,0,.245.259l3.022-.328a.207.207,0,0,0,.183-.171l1.133-6.426a2.267,2.267,0,0,1,1.882-2.014,1.061,1.061,0,0,1,.9.251,1.5,1.5,0,0,1,.215,1.3l-1.133,6.424a.226.226,0,0,0,.058.19.221.221,0,0,0,.186.07l3.022-.329a.207.207,0,0,0,.183-.171l1.288-7.3a3.514,3.514,0,0,0-.732-3.093A3.019,3.019,0,0,0,747.451,135.617Z" transform="translate(-703.846 -129.765)" fill="#0c3d4f"/>
      <path id="パス_20" data-name="パス 20" d="M767.466,134.253l-3.021.328a.208.208,0,0,0-.184.172l-1.932,11.183a.221.221,0,0,0,.058.19.224.224,0,0,0,.155.071.153.153,0,0,0,.03,0l3.022-.329a.207.207,0,0,0,.183-.172l1.932-11.183a.225.225,0,0,0-.244-.259Z" transform="translate(-713.308 -129.329)" fill="#0c3d4f"/>
      <path id="パス_21" data-name="パス 21" d="M767.91,126.975a2.665,2.665,0,0,0-2.3,2.488,1.586,1.586,0,0,0,.489,1.2,1.471,1.471,0,0,0,.958.367,2.024,2.024,0,0,0,.29-.011,2.6,2.6,0,0,0,2.3-2.488,1.583,1.583,0,0,0-.493-1.2A1.554,1.554,0,0,0,767.91,126.975Z" transform="translate(-714.375 -126.963)" fill="#0c3d4f"/>
      <path id="パス_22" data-name="パス 22" d="M783.113,133.2a3.045,3.045,0,0,0-2.66-.839,3.992,3.992,0,0,0-2.555,1.185l.067-.409a.225.225,0,0,0-.245-.258l-3.022.328a.208.208,0,0,0-.184.172l-1.954,11.185a.222.222,0,0,0,.057.19.226.226,0,0,0,.156.072h.03l3.022-.329a.209.209,0,0,0,.184-.172l1.13-6.48a2.32,2.32,0,0,1,1.93-1.963,1.086,1.086,0,0,1,.926.264,1.568,1.568,0,0,1,.23,1.351l-1.11,6.356a.222.222,0,0,0,.057.19.227.227,0,0,0,.186.07l3.045-.332a.207.207,0,0,0,.183-.172l1.243-7.207A3.644,3.644,0,0,0,783.113,133.2Z" transform="translate(-716.629 -128.705)" fill="#0c3d4f"/>
    </g>
  </g>
</svg>
