<svg xmlns="http://www.w3.org/2000/svg" width="133.706" height="59.397" viewBox="0 0 133.706 59.397">
  <g id="グループ_14" data-name="グループ 14" transform="translate(-764.682 -445.966)">
    <path id="パス_9" data-name="パス 9" d="M764.682,461.54v43.823L898.388,489.79V445.966Zm37.085,9.507a.68.68,0,0,1,.637-.633l16.611-1.823q.538-.059.44.515l-.588,3.421a.686.686,0,0,1-.661.611l-16.586,1.82q-.539.06-.465-.487Zm-8.507,4.829a3.821,3.821,0,0,1-1.257-.083l-2.237,12.66-.306,1.779a.688.688,0,0,1-.663.611l-10.018,1.1q-.541.059-.442-.49l.588-3.421a.682.682,0,0,1,.638-.634l4.8-.526a.686.686,0,0,0,.661-.612l.192-1.119q.7-4.268,1.393-8.536L774.822,477.9q-.539.06-.465-.487l.612-3.424a.68.68,0,0,1,.637-.633l13.694-1.5a4.587,4.587,0,0,1,3.959-3.986,3.52,3.52,0,0,1,4,3.565A4.584,4.584,0,0,1,793.259,475.876Zm26.416-.131-.587,3.421a2.911,2.911,0,0,1-.417,1.075l-4.606,7.365a1.131,1.131,0,0,1-.858.559l-7.839.861q-.564.061-.466-.488l.588-3.421a.7.7,0,0,1,.661-.636l4.19-.459a1.17,1.17,0,0,0,.882-.538l1.691-2.635q.318-.477-.245-.414l-13.156,1.444q-.564.061-.465-.513l.587-3.421a.686.686,0,0,1,.661-.612l18.912-2.075Q819.772,475.195,819.675,475.745Zm26.407-8.46-.588,3.421a.7.7,0,0,1-.661.636l-6.3.692-.336,2.266,6.983-.766q.564-.062.466.488l-.588,3.421a.688.688,0,0,1-.662.612l-6.125.672a.68.68,0,0,0-.636.633l-.882,5.683a.685.685,0,0,1-.661.611l-4.115.452q-.564.061-.467-.487l.392-2.52-.046,0,.516-3.474c-.057-.154-.2-.227-.444-.2l-6.443.707q-.564.062-.465-.488l.588-3.421a.686.686,0,0,1,.661-.612l6.809-.747.335-2.266-6.606.725q-.564.062-.465-.512l.587-3.421a.686.686,0,0,1,.661-.611l5.954-.653a.652.652,0,0,0,.62-.6l.085-.575h.012l.091-.609a.649.649,0,0,1,.637-.608l4.017-.441c.359-.04.516.123.466.487l-.171,1.146q-.074.572.489.51l5.832-.64Q846.182,466.735,846.083,467.285Zm16.642,9.882a.852.852,0,0,1-.779.758l-2.226.245a.658.658,0,0,1-.581-.174.672.672,0,0,1-.139-.6l.4-2.27h0l-1.939.207-1.349,7.807a.854.854,0,0,1-.8.742l-2.432.267a1.024,1.024,0,0,1-.12.007.607.607,0,0,1-.465-.181.652.652,0,0,1-.134-.588l1.29-7.615-2.532.278a.666.666,0,0,1-.585-.174.652.652,0,0,1-.134-.588l.339-1.941a.86.86,0,0,1,.8-.742l2.471-.271c.125-.013.191-.05.22-.217l.094-.54a.861.861,0,0,1,.8-.742l2.432-.267a.644.644,0,0,1,.57.168.668.668,0,0,1,.152.581l-.1.55v0l4.918-.534a.665.665,0,0,1,.585.173.65.65,0,0,1,.135.587ZM869.211,472q-.564.062-.465-.488l1.371-7.966a.7.7,0,0,1,.661-.636l4.116-.451q.564-.062.465.512l-1.371,7.966a.685.685,0,0,1-.661.611Zm17.958-10.325-3.16,18.181a.672.672,0,0,1-.637.609L873.89,481.5c-.359.039-.506-.124-.44-.49l.588-3.421a.68.68,0,0,1,.636-.634l4.19-.46a.686.686,0,0,0,.661-.612l2.352-13.633a.694.694,0,0,1,.661-.636l4.166-.458Q887.265,461.1,887.168,461.673Z" fill="#fff"/>
    <path id="パス_10" data-name="パス 10" d="M811.973,486.2l-.914.1v-.914a.22.22,0,0,0-.25-.223l-1.04.114a.287.287,0,0,0-.251.278v.914l-.914.1a.286.286,0,0,0-.251.278v1.04a.22.22,0,0,0,.251.223l.914-.1v.914a.22.22,0,0,0,.251.223l1.04-.114a.287.287,0,0,0,.25-.278v-.914l.914-.1a.286.286,0,0,0,.25-.278v-1.04A.22.22,0,0,0,811.973,486.2Z" transform="translate(-17.03 -15.285)" fill="#fff"/>
  </g>
</svg>
