<svg xmlns="http://www.w3.org/2000/svg" viewBox="0 0 184.96 50.48"><defs><style>.cls-1{fill:#134d60;}</style></defs><g id="レイヤー_2" data-name="レイヤー 2"><g id="レイヤー_1-2" data-name="レイヤー 1"><path class="cls-1" d="M42.53,26.52l31-3.4c.61-.07.87.2.76.8l-1,5.6a4.81,4.81,0,0,1-.69,1.77L65.1,43.36a1.83,1.83,0,0,1-1.4.91L50.85,45.69c-.62.06-.87-.2-.77-.8l1-5.61a1.13,1.13,0,0,1,1.08-1L59,37.48a1.93,1.93,0,0,0,1.45-.88l2.77-4.32c.34-.52.21-.75-.41-.68L41.25,34c-.62.07-.87-.21-.76-.84l1-5.61A1.13,1.13,0,0,1,42.53,26.52Z"/><path class="cls-1" d="M73.94,13l-1,5.61a1.11,1.11,0,0,1-1.08,1l-27.19,3c-.59.06-.84-.2-.76-.8l1-5.61a1.12,1.12,0,0,1,1.05-1l27.23-3C73.8,12.12,74,12.41,73.94,13Z"/><path class="cls-1" d="M158.07,2.88l6.75-.75c.61-.06.87.22.76.84L163.33,16a1.12,1.12,0,0,1-1.08,1l-6.75.74c-.62.07-.87-.19-.76-.8l2.24-13A1.13,1.13,0,0,1,158.07,2.88ZM177.34.76,184.17,0c.62-.07.87.21.76.84l-5.18,29.8a1.09,1.09,0,0,1-1,1l-15.54,1.71q-.88.09-.72-.81l1-5.6a1.11,1.11,0,0,1,1-1l6.87-.76a1.12,1.12,0,0,0,1.09-1L176.26,1.8A1.14,1.14,0,0,1,177.34.76Z"/><path class="cls-1" d="M115.54,16.7a1.13,1.13,0,0,0,1.08-1l1-5.61c.11-.6-.15-.87-.77-.8l-9.55,1.05q-.93.1-.81-.84l.29-1.88c.08-.59-.18-.86-.77-.79l-6.58.72a1.07,1.07,0,0,0-1.05,1l-.15,1h0l-.14.95a1,1,0,0,1-1,1l-9.76,1.07a1.14,1.14,0,0,0-1.09,1l-1,5.6c-.11.63.15.91.76.84l10.83-1.19-.55,3.72L85.1,23.69a1.12,1.12,0,0,0-1.08,1l-1,5.6c-.11.61.15.87.77.8l10.56-1.16c.4,0,.63.08.72.33L94.26,36h.07l-.64,4.13c-.1.6.15.87.77.8l6.74-.74a1.13,1.13,0,0,0,1.09-1l1.44-9.32a1.13,1.13,0,0,1,1-1l10-1.1a1.13,1.13,0,0,0,1.08-1l1-5.61c.1-.6-.15-.87-.77-.8l-11.45,1.26.56-3.72Z"/><path class="cls-1" d="M146.1,17a1.09,1.09,0,0,0-1-.28l-8.06.88h0l.16-.9a1.1,1.1,0,0,0-.25-.95,1.08,1.08,0,0,0-.94-.28l-4,.44a1.41,1.41,0,0,0-1.31,1.22l-.16.88c0,.27-.15.33-.36.35l-4.05.45A1.43,1.43,0,0,0,124.88,20l-.55,3.18a1.06,1.06,0,0,0,.22,1,1.08,1.08,0,0,0,1,.29l4.15-.46-2.12,12.48a1.11,1.11,0,0,0,.22,1,1,1,0,0,0,.77.29h.19l4-.44A1.38,1.38,0,0,0,134,36l2.21-12.8,3.18-.34h0l-.65,3.72a1.11,1.11,0,0,0,.23,1,1,1,0,0,0,.95.29l3.65-.4a1.41,1.41,0,0,0,1.28-1.24l1.45-8.32A1.08,1.08,0,0,0,146.1,17Z"/><path class="cls-1" d="M31,11a7.51,7.51,0,0,0-6.49,6.54L2.06,20a1.1,1.1,0,0,0-1,1L0,26.65c-.08.6.18.86.77.8L20.1,25.33l-2.28,14-.32,1.83a1.13,1.13,0,0,1-1.08,1L8.55,43a1.12,1.12,0,0,0-1.05,1l-1,5.61c-.11.6.13.86.72.8l16.43-1.8a1.13,1.13,0,0,0,1.08-1l.5-2.91Q27.12,34.37,28.94,24a6.36,6.36,0,0,0,2.06.13,7.52,7.52,0,0,0,6.56-7.28A5.77,5.77,0,0,0,31,11Zm3.17,7.07a.47.47,0,0,1-.41.46l-1.5.16v1.5a.46.46,0,0,1-.41.45l-1.7.19a.36.36,0,0,1-.41-.36V19l-1.5.16a.36.36,0,0,1-.41-.36V17.06a.46.46,0,0,1,.41-.45l1.5-.17v-1.5a.46.46,0,0,1,.41-.45l1.7-.19a.36.36,0,0,1,.41.37v1.5l1.5-.17a.36.36,0,0,1,.41.37Z"/></g></g></svg>