<svg xmlns="http://www.w3.org/2000/svg" width="182.989" height="105.648" viewBox="0 0 182.989 105.648">
  <g id="グループ_170" data-name="グループ 170" transform="translate(15194.001 14182)">
    <path id="交差_3" data-name="交差 3" d="M38.223,96.932l56.989-32.9h126L38.223,169.678Z" transform="translate(-15232.224 -14246.029)" fill="#ffef2f"/>
    <path id="パス_46" data-name="パス 46" d="M4.485-13.179H18.423v2.99h3.289V-16.1H18.929c.575-.736,1.15-1.541,1.725-2.369L17-19.5a19.946,19.946,0,0,1-1.748,3.4H12.075l1.265-.483a13.25,13.25,0,0,0-1.771-3.22L8.6-18.7a17.2,17.2,0,0,1,1.311,2.6H6.877l.9-.414a12.642,12.642,0,0,0-2.047-2.944L2.875-18.193a18.45,18.45,0,0,1,1.4,2.093H1.357v5.911H4.485ZM21.9-6.624H13.984a23.966,23.966,0,0,0,4.14-3.68l-2.093-1.61-.713.161H5.428v2.875h6.946c-.345.3-.736.6-1.127.874H9.8v1.38H1.173v3.059H9.8V-1.38c0,.322-.138.414-.6.414s-2.277,0-3.565-.069A13.593,13.593,0,0,1,6.969,2.208,13.717,13.717,0,0,0,11.615,1.7c1.242-.483,1.61-1.334,1.61-2.967v-2.3H21.9ZM36.294-1.7V-5.658h6.6v-3.22h-6.6V-12.4h7.521v-3.266H36.294v-4H32.8v4H29.854a28.58,28.58,0,0,0,1.012-2.99l-3.473-.782a19.485,19.485,0,0,1-4.025,8.142,22.2,22.2,0,0,1,3.013,2.024,20.442,20.442,0,0,0,2-3.128H32.8v3.519H26.841v3.22H32.8V-1.7H24.1V1.564h20.93V-1.7Zm25.76-10.35h-1.2v-2.392h1.2Zm0,5.336h-1.2V-9.085h1.2ZM53.061-9.085h1.127v2.369H53.061Zm5.037,0v2.369h-1.15V-9.085Zm-1.15-2.967v-2.392H58.1v2.392Zm-3.887-2.392h1.127v2.392H53.061Zm-2.944,2.392H47.058v2.967h3.059v2.369H47.449v2.967H67.643V-6.716h-2.53V-9.085h2.875v-2.967H65.113v-2.392H67.16v-2.921H53.705a15.068,15.068,0,0,0,.736-1.334l-3.289-.966A13.181,13.181,0,0,1,46.437-14.4a21.515,21.515,0,0,1,2.737,2.185,9.767,9.767,0,0,0,.943-.8Zm-.092,14.26A13.825,13.825,0,0,0,52.509-2.76l-3.266-.782A11.685,11.685,0,0,1,46.782.92Zm3.427-4.83a31.225,31.225,0,0,1,.414,4.554l3.289-.483a28.223,28.223,0,0,0-.6-4.439Zm4.508.092a24.622,24.622,0,0,1,1.081,4.485L62.4,1.311a23.493,23.493,0,0,0-1.288-4.37Zm4.508-.115a30.727,30.727,0,0,1,2.6,4.83l3.45-1.127a33.894,33.894,0,0,0-2.829-4.692ZM85.675-15.87A18.71,18.71,0,0,0,82-18.63l-1.61,2.254a17.874,17.874,0,0,1,3.565,3.013Zm-6.256,5.29a20.33,20.33,0,0,1,3.772,2.967l1.679-2.668a19.206,19.206,0,0,0-3.887-2.691ZM73-12.88a24.029,24.029,0,0,0-1.081-5.451l-2.3.6a23.842,23.842,0,0,1,.92,5.52Zm18.63,8.441-.483-3.105-2.162.391V-19.688H85.859V-6.6L79.4-5.451a44.671,44.671,0,0,0-3.2-3.381v-.092h3.2v-3.105H76.2V-12.9l2.047.552c.552-1.4,1.219-3.611,1.817-5.543l-2.783-.575A45.478,45.478,0,0,1,76.2-13.087v-6.44H73.117v7.5H69.759v3.105h2.277A19.571,19.571,0,0,1,69.3-3.611a21.221,21.221,0,0,1,1.472,3.5,23.882,23.882,0,0,0,2.346-5.2V2.116H76.2V-5.152c.506.874.989,1.748,1.288,2.415l1.886-2.438.46,2.875,6.026-1.081V2.162h3.128V-3.956Z" transform="translate(-15171.837 -14111.34) rotate(-30)" fill="#135064"/>
  </g>
</svg>
