<svg xmlns="http://www.w3.org/2000/svg" width="182.989" height="105.648" viewBox="0 0 182.989 105.648">
  <g id="グループ_171" data-name="グループ 171" transform="translate(15152.001 13958)">
    <path id="交差_4" data-name="交差 4" d="M38.223,96.932l56.989-32.9h126L38.223,169.678Z" transform="translate(-15190.224 -14022.029)" fill="#135064"/>
    <path id="パス_47" data-name="パス 47" d="M9.5-19.8A24.121,24.121,0,0,1,.161-11.431,13.688,13.688,0,0,1,2.3-8.717a28.485,28.485,0,0,0,9.085-7.774,29.833,29.833,0,0,0,9.246,7.8,18.049,18.049,0,0,1,2.254-3.013,22.247,22.247,0,0,1-9.89-8.1Zm3.91,14.4H19.3V-8.372H13.409v-4.669H9.844V-1.426H7.222V-9.177H3.933v7.751H1.656V1.587H21.344V-1.426H13.409Zm23.575-7.981a14.4,14.4,0,0,1-.575,1.495H32.5l.276-.046a9.746,9.746,0,0,0-.6-1.449ZM44.919-2.944V-5.658H36.133V-6.3H42.9V-8.671H36.133v-.644h7.8v-2.576H39.79c.276-.46.575-.966.9-1.495H44.85V-16.1H42.205c.506-.736,1.081-1.656,1.679-2.645l-3.519-.805a18.671,18.671,0,0,1-1.288,3.243l.69.207H38.249v-3.588H35.1V-16.1h-1.1v-3.588h-3.1V-16.1H29.233l1.035-.368a17.394,17.394,0,0,0-1.633-3.174l-2.875.966A24.022,24.022,0,0,1,27-16.1h-2.76v2.714h4.416a14.337,14.337,0,0,1,.552,1.495H25.185v2.576h7.636v.644H26.312V-6.3h6.509v.644H24.2v2.714h5.888A23.986,23.986,0,0,1,23.437-.805a15.22,15.22,0,0,1,2.139,2.783,21.964,21.964,0,0,0,7.245-3.335V2.185h3.312V-1.472a18.227,18.227,0,0,0,7.2,3.45,14.657,14.657,0,0,1,2.254-3.036,22.371,22.371,0,0,1-6.555-1.886Zm17.135-9.108h-1.2v-2.392h1.2Zm0,5.336h-1.2V-9.085h1.2ZM53.061-9.085h1.127v2.369H53.061Zm5.037,0v2.369h-1.15V-9.085Zm-1.15-2.967v-2.392H58.1v2.392Zm-3.887-2.392h1.127v2.392H53.061Zm-2.944,2.392H47.058v2.967h3.059v2.369H47.449v2.967H67.643V-6.716h-2.53V-9.085h2.875v-2.967H65.113v-2.392H67.16v-2.921H53.705a15.068,15.068,0,0,0,.736-1.334l-3.289-.966A13.181,13.181,0,0,1,46.437-14.4a21.515,21.515,0,0,1,2.737,2.185,9.767,9.767,0,0,0,.943-.8Zm-.092,14.26A13.825,13.825,0,0,0,52.509-2.76l-3.266-.782A11.685,11.685,0,0,1,46.782.92Zm3.427-4.83a31.225,31.225,0,0,1,.414,4.554l3.289-.483a28.223,28.223,0,0,0-.6-4.439Zm4.508.092a24.622,24.622,0,0,1,1.081,4.485L62.4,1.311a23.493,23.493,0,0,0-1.288-4.37Zm4.508-.115a30.727,30.727,0,0,1,2.6,4.83l3.45-1.127a33.894,33.894,0,0,0-2.829-4.692ZM85.675-15.87A18.71,18.71,0,0,0,82-18.63l-1.61,2.254a17.874,17.874,0,0,1,3.565,3.013Zm-6.256,5.29a20.33,20.33,0,0,1,3.772,2.967l1.679-2.668a19.206,19.206,0,0,0-3.887-2.691ZM73-12.88a24.029,24.029,0,0,0-1.081-5.451l-2.3.6a23.842,23.842,0,0,1,.92,5.52Zm18.63,8.441-.483-3.105-2.162.391V-19.688H85.859V-6.6L79.4-5.451a44.671,44.671,0,0,0-3.2-3.381v-.092h3.2v-3.105H76.2V-12.9l2.047.552c.552-1.4,1.219-3.611,1.817-5.543l-2.783-.575A45.478,45.478,0,0,1,76.2-13.087v-6.44H73.117v7.5H69.759v3.105h2.277A19.571,19.571,0,0,1,69.3-3.611a21.221,21.221,0,0,1,1.472,3.5,23.882,23.882,0,0,0,2.346-5.2V2.116H76.2V-5.152c.506.874.989,1.748,1.288,2.415l1.886-2.438.46,2.875,6.026-1.081V2.162h3.128V-3.956Z" transform="translate(-15126.837 -13884.34) rotate(-30)" fill="#fff"/>
    <path id="パス_48" data-name="パス 48" d="M9.048-3.936h-7.2v.84H8.592C8.1-1.992,7.356-.468,6.744.708L7.656.96C8.412-.516,9.324-2.448,9.9-3.78l-.7-.2ZM3.384-6.264v.816H8.616v-.816Zm2.076-3.8a15.162,15.162,0,0,1-5,4.74,3.266,3.266,0,0,1,.564.7,16.872,16.872,0,0,0,4.92-4.56,18.765,18.765,0,0,0,5.04,4.5,3.4,3.4,0,0,1,.6-.768,16.467,16.467,0,0,1-5.244-4.608ZM18.336-2.7l-.9-.084a6.731,6.731,0,0,0-.18,1.416c0,1.188,1.032,1.776,2.928,1.776A15.807,15.807,0,0,0,22.5.228l.036-.972A11.55,11.55,0,0,1,20.2-.5c-1.716,0-2.028-.552-2.028-1.116A4.243,4.243,0,0,1,18.336-2.7Zm-1.38-6.564L15.8-9.36a4.708,4.708,0,0,1-.036.984c-.036.24-.1.624-.18,1.044-.468.036-.9.06-1.3.06a10.871,10.871,0,0,1-1.44-.084l.036.936c.432.024.864.048,1.392.048.336,0,.708-.012,1.1-.036-.1.432-.2.888-.312,1.284A26.167,26.167,0,0,1,13.056.24L14.112.6a36.314,36.314,0,0,0,1.872-5.5c.144-.528.264-1.08.384-1.608a23.044,23.044,0,0,0,2.5-.408v-.936a20.052,20.052,0,0,1-2.3.42c.06-.324.132-.624.18-.888C16.788-8.556,16.884-9.012,16.956-9.264Zm1.128,3.648v.9a19.722,19.722,0,0,1,2.232-.132,15.172,15.172,0,0,1,2.016.144l.024-.912a19.207,19.207,0,0,0-2.076-.108C19.512-5.724,18.72-5.676,18.084-5.616ZM21.06-8.9l-.636.276A13.714,13.714,0,0,1,21.4-6.96l.648-.288A13.382,13.382,0,0,0,21.06-8.9ZM22.38-9.4l-.624.276a12.76,12.76,0,0,1,1,1.668L23.4-7.74A15.435,15.435,0,0,0,22.38-9.4Zm10.752.036H32.016a7.216,7.216,0,0,1,.108.72c.024.3.06,1.1.072,1.86-.5.024-1.02.036-1.512.036a13.455,13.455,0,0,1-1.932-.132v.96c.516.036,1.368.072,1.944.072.492,0,1.008-.012,1.524-.036v.372c0,2.3-.072,3.66-1.356,4.788A3.935,3.935,0,0,1,29.7.024l.876.684c2.544-1.5,2.544-3.456,2.544-6.216v-.42c.72-.048,1.392-.12,1.944-.2v-.984a14.21,14.21,0,0,1-1.956.276c-.012-.744-.024-1.548-.012-1.812A6.182,6.182,0,0,1,33.132-9.36Zm-6.072.18-1.116-.108a4.983,4.983,0,0,1-.06.8A32.412,32.412,0,0,0,25.428-3.7a13.37,13.37,0,0,0,.636,3.8l.816-.1c-.012-.12-.024-.288-.036-.408a1.811,1.811,0,0,1,.06-.54c.132-.588.492-1.812.78-2.652L27.168-3.9c-.228.6-.48,1.332-.648,1.836A15.923,15.923,0,0,1,26.856-8.4C26.916-8.628,27-8.952,27.06-9.18Z" transform="translate(-15120.089 -13919.67) rotate(-30)" fill="#fff"/>
  </g>
</svg>
