<svg xmlns="http://www.w3.org/2000/svg" viewBox="0 0 219.17 97.36"><defs><style>.cls-1{fill:#134d60;}.cls-2{fill:#fff;}</style></defs><g id="レイヤー_2" data-name="レイヤー 2"><g id="レイヤー_1-2" data-name="レイヤー 1"><polygon class="cls-1" points="219.17 71.83 0 97.36 0 25.53 219.17 0 219.17 71.83"/><path class="cls-2" d="M58.38,51.42l31-3.41c.62-.06.87.2.76.8l-1,5.61a4.68,4.68,0,0,1-.68,1.76L81,68.26a1.86,1.86,0,0,1-1.41.91L66.69,70.58c-.61.07-.87-.2-.76-.8l1-5.6A1.15,1.15,0,0,1,68,63.13l6.86-.75a1.93,1.93,0,0,0,1.45-.88l2.77-4.32c.35-.52.22-.75-.4-.68L57.09,58.87c-.61.06-.87-.22-.76-.84l1-5.61A1.1,1.1,0,0,1,58.38,51.42Z"/><path class="cls-2" d="M89.78,37.93l-1,5.61a1.13,1.13,0,0,1-1.08,1l-27.19,3c-.59.07-.84-.2-.76-.8l1-5.61a1.13,1.13,0,0,1,1-1l27.23-3Q89.95,37,89.78,37.93Z"/><path class="cls-2" d="M173.91,27.77l6.75-.74c.62-.07.87.21.76.84l-2.25,13.06a1.11,1.11,0,0,1-1.08,1l-6.75.74c-.61.07-.87-.2-.76-.8l2.25-13.06A1.15,1.15,0,0,1,173.91,27.77Zm19.28-2.11,6.83-.75c.61-.07.87.21.76.84l-5.18,29.8a1.11,1.11,0,0,1-1,1L179,58.25c-.59.07-.83-.2-.72-.8l1-5.61a1.13,1.13,0,0,1,1.05-1l6.87-.75a1.13,1.13,0,0,0,1.08-1l3.86-22.35A1.12,1.12,0,0,1,193.19,25.66Z"/><path class="cls-2" d="M131.39,41.6a1.15,1.15,0,0,0,1.08-1.05l1-5.6c.11-.61-.14-.87-.76-.8l-9.56,1.05c-.61.06-.88-.22-.8-.84l.28-1.88c.08-.6-.18-.86-.76-.8l-6.59.73a1.06,1.06,0,0,0-1,1l-.15,1h0l-.14.94a1.08,1.08,0,0,1-1,1l-9.76,1.07a1.13,1.13,0,0,0-1.08,1l-1,5.61c-.11.63.14.91.76.84l10.83-1.19-.55,3.72L101,48.59a1.13,1.13,0,0,0-1.09,1l-1,5.61c-.11.6.14.87.76.8l10.56-1.16c.4,0,.64.08.73.33l-.84,5.69h.07L109.54,65c-.11.6.15.86.76.8l6.75-.75a1.11,1.11,0,0,0,1.08-1l1.45-9.31a1.11,1.11,0,0,1,1-1l10-1.1a1.13,1.13,0,0,0,1.09-1l1-5.61c.11-.6-.15-.87-.76-.8L120.5,46.44l.55-3.71Z"/><path class="cls-2" d="M161.94,41.86a1.09,1.09,0,0,0-1-.28l-8.06.87h0l.16-.9a1.09,1.09,0,0,0-.25-1,1,1,0,0,0-.93-.27l-4,.44A1.41,1.41,0,0,0,146.6,42l-.15.89c0,.27-.16.33-.36.35l-4.05.45a1.4,1.4,0,0,0-1.31,1.21l-.55,3.18a1.06,1.06,0,0,0,.22,1,1.07,1.07,0,0,0,.95.28l4.15-.45-2.11,12.48a1.06,1.06,0,0,0,.22,1,1,1,0,0,0,.76.3h.2l4-.44a1.41,1.41,0,0,0,1.32-1.22l2.21-12.79,3.18-.34h0l-.65,3.72a1.12,1.12,0,0,0,.22,1,1.1,1.1,0,0,0,1,.29l3.64-.4a1.4,1.4,0,0,0,1.28-1.25l1.46-8.32A1.07,1.07,0,0,0,161.94,41.86Z"/><path class="cls-2" d="M46.84,35.9a7.52,7.52,0,0,0-6.49,6.53L17.91,44.9a1.12,1.12,0,0,0-1.05,1l-1,5.62c-.08.59.17.86.76.8l19.32-2.13-2.28,14-.31,1.83a1.12,1.12,0,0,1-1.09,1l-7.87.87a1.11,1.11,0,0,0-1,1l-1,5.6c-.1.6.14.87.73.81l16.42-1.81a1.12,1.12,0,0,0,1.09-1l.5-2.91,3.66-20.76a6.13,6.13,0,0,0,2.06.14,7.52,7.52,0,0,0,6.57-7.29A5.77,5.77,0,0,0,46.84,35.9ZM50,43a.47.47,0,0,1-.41.45l-1.5.17v1.5a.47.47,0,0,1-.41.45L46,45.73a.37.37,0,0,1-.41-.37v-1.5l-1.5.17a.37.37,0,0,1-.41-.37V42a.48.48,0,0,1,.41-.46l1.5-.16v-1.5a.46.46,0,0,1,.41-.45l1.71-.19a.36.36,0,0,1,.41.36v1.5l1.5-.16a.36.36,0,0,1,.41.36Z"/></g></g></svg>